<svg width="40" height="40" viewBox="0 0 40 40" fill="none" xmlns="http://www.w3.org/2000/svg">
<path d="M23.4333 28.0667C23.0167 28.2833 22.5667 28.45 22.0667 28.5167C21.8667 28.55 21.65 28.5667 21.45 28.5667H14.8667" stroke="white" stroke-width="2" stroke-linecap="round" stroke-linejoin="round"/>
<path d="M8.01666 28.55C6.1 28.4333 4.58333 27.05 4.58333 25.3833V11.1666C4.58333 9.41664 6.25 7.99997 8.28334 7.99997H21.4333C23.4667 7.99997 25.1333 9.41664 25.1333 11.1666V25.1166" stroke="white" stroke-width="2" stroke-linecap="round" stroke-linejoin="round"/>
<path d="M25.1333 25.5333V15.25C25.1333 14.0833 26.2833 13.15 27.7 13.15H29.0834C29.8334 13.15 30.5333 13.4166 31.0333 13.8833L34.7833 17.4666C35.1833 17.85 35.4 18.3333 35.4 18.8333V26.4666C35.4 27.6333 34.25 28.5666 32.8334 28.5666H30.2667" stroke="white" stroke-width="2" stroke-linecap="round" stroke-linejoin="round"/>
<path d="M34.7271 18.75H25.3964" stroke="white" stroke-width="2" stroke-linecap="round" stroke-linejoin="round"/>
<path d="M11.4333 32C13.3295 32 14.8667 30.4628 14.8667 28.5666C14.8667 26.6705 13.3295 25.1333 11.4333 25.1333C9.53716 25.1333 8 26.6705 8 28.5666C8 30.4628 9.53716 32 11.4333 32Z" stroke="white" stroke-width="2" stroke-linecap="round" stroke-linejoin="round"/>
<path d="M26.85 32C28.7462 32 30.2834 30.4628 30.2834 28.5666C30.2834 26.6705 28.7462 25.1333 26.85 25.1333C24.9538 25.1333 23.4167 26.6705 23.4167 28.5666C23.4167 30.4628 24.9538 32 26.85 32Z" stroke="white" stroke-width="2" stroke-linecap="round" stroke-linejoin="round"/>
</svg>
