<svg width="40" height="40" viewBox="0 0 40 40" fill="none" xmlns="http://www.w3.org/2000/svg">
<path d="M23.3167 35.4167H29.7C31.5333 35.4167 33.0333 33.9167 33.0333 32.0833V14.4667C33.0333 12.6333 31.5333 11.1333 29.7 11.1333H23.3167" stroke="white" stroke-width="2" stroke-linecap="round" stroke-linejoin="round"/>
<path d="M21.8833 13.8333V9.21667C21.8833 6.66667 19.8333 4.60001 17.3167 4.60001C14.7833 4.60001 12.75 6.66667 12.75 9.21667V13.8333" stroke="white" stroke-width="2" stroke-linecap="round" stroke-linejoin="round"/>
<path d="M18.8 7.61667C18.6167 8.11667 18.5167 8.65 18.5167 9.2V10.7" stroke="white" stroke-width="2" stroke-linecap="round" stroke-linejoin="round"/>
<path d="M22.1667 4.68332C20.6 4.99999 19.3333 6.13332 18.8 7.61665" stroke="white" stroke-width="2" stroke-linecap="round" stroke-linejoin="round"/>
<path d="M27.6667 13.8333V9.21667C27.6667 6.66667 25.6167 4.60001 23.1 4.60001C22.7833 4.60001 22.4833 4.63334 22.1833 4.70001" stroke="white" stroke-width="2" stroke-linecap="round" stroke-linejoin="round"/>
<path d="M14.2333 23.2666L17.0833 26.1666L22.8 20.3833" stroke="white" stroke-width="2" stroke-linecap="round" stroke-linejoin="round"/>
<path d="M24.3333 11.1333H10.2833C8.45001 11.1333 6.95001 12.6333 6.95001 14.4667V32.0833C6.95001 33.9167 8.45001 35.4167 10.2833 35.4167H24.3167C26.15 35.4167 27.65 33.9167 27.65 32.0833V14.4667C27.6667 12.6167 26.1667 11.1333 24.3333 11.1333Z" stroke="white" stroke-width="2" stroke-linecap="round" stroke-linejoin="round"/>
</svg>
