<svg width="40" height="40" viewBox="0 0 40 40" fill="none" xmlns="http://www.w3.org/2000/svg">
<path d="M14.4667 17.2666H8.86669C7.31669 17.2666 6.06668 16.0166 6.06668 14.4666V8.86667C6.06668 7.31667 7.31669 6.06668 8.86669 6.06668H14.4667C16.0167 6.06668 17.2667 7.31667 17.2667 8.86667V14.4666C17.2667 16.0166 16.0167 17.2666 14.4667 17.2666Z" stroke="white" stroke-width="2" stroke-linecap="round" stroke-linejoin="round"/>
<path d="M31.1334 17.2666H25.5334C23.9834 17.2666 22.7334 16.0166 22.7334 14.4666V8.86667C22.7334 7.31667 23.9834 6.06668 25.5334 6.06668H31.1334C32.6834 6.06668 33.9334 7.31667 33.9334 8.86667V14.4666C33.9334 16.0166 32.6834 17.2666 31.1334 17.2666Z" stroke="white" stroke-width="2" stroke-linecap="round" stroke-linejoin="round"/>
<path d="M14.4667 33.9333H8.86669C7.31669 33.9333 6.06668 32.6833 6.06668 31.1333V25.5334C6.06668 23.9834 7.31669 22.7334 8.86669 22.7334H14.4667C16.0167 22.7334 17.2667 23.9834 17.2667 25.5334V31.1333C17.2667 32.6833 16.0167 33.9333 14.4667 33.9333Z" stroke="white" stroke-width="2" stroke-linecap="round" stroke-linejoin="round"/>
<path d="M31.1334 33.9333H25.5334C23.9834 33.9333 22.7334 32.6833 22.7334 31.1333V25.5334C22.7334 23.9834 23.9834 22.7334 25.5334 22.7334H31.1334C32.6834 22.7334 33.9334 23.9834 33.9334 25.5334V31.1333C33.9334 32.6833 32.6834 33.9333 31.1334 33.9333Z" stroke="white" stroke-width="2" stroke-linecap="round" stroke-linejoin="round"/>
</svg>
